<svg width="239" height="20" viewBox="0 0 239 20" fill="none" xmlns="http://www.w3.org/2000/svg">
<path d="M5.18543 8.13762C7.05666 8.13762 9.01699 8.05285 10.8882 7.96809C11.6902 7.96809 12.403 7.88332 13.205 7.88332C16.591 7.71379 19.9771 7.54425 23.3631 7.37472C27.462 7.20518 31.4717 6.95088 35.5706 6.78135C41.3625 6.44228 47.1544 6.18798 52.9463 5.84891C54.2829 5.76415 55.6195 5.76415 56.9561 5.67938C60.3421 5.50985 63.7282 5.34031 67.1142 5.25555C70.5002 5.08601 73.8863 4.91648 77.2723 4.83171C78.6089 4.74695 79.9455 4.66218 81.2821 4.66218C86.6285 4.49264 92.0639 4.32311 97.4103 4.15358C100.707 4.06881 104.004 3.98404 107.39 3.81451C108.727 3.81451 109.974 3.72974 111.311 3.72974C116.479 3.64498 121.736 3.56021 126.904 3.47544C132.073 3.39068 137.152 3.30591 142.32 3.22114C143.656 3.22114 144.993 3.22114 146.419 3.22114C149.805 3.22114 153.102 3.22114 156.488 3.22114C161.745 3.22114 166.913 3.22114 172.17 3.13637C173.863 3.13637 175.556 3.13637 177.249 3.13637C180.814 3.13637 184.378 3.13637 187.942 3.13637C188.209 3.13637 188.566 3.13637 188.833 3.13637C180.814 3.22114 172.705 3.30591 164.685 3.47544C161.299 3.56021 158.002 3.56021 154.616 3.64498C153.191 3.64498 151.676 3.64498 150.25 3.72974C145.349 3.81451 140.538 3.98404 135.637 4.06881C130.023 4.23834 124.409 4.32311 118.796 4.49264C117.816 4.49264 116.925 4.57741 115.944 4.57741C112.915 4.74694 109.974 4.83171 106.945 5.00125C100.885 5.25555 94.8262 5.50985 88.767 5.76415C87.8759 5.76415 86.9849 5.84892 86.0938 5.93368C83.1533 6.10322 80.1237 6.35752 77.1832 6.52705C71.8368 6.86612 66.5796 7.20518 61.2332 7.54425C59.8075 7.62902 58.2927 7.79855 56.867 7.88332C53.481 8.13762 50.0949 8.39192 46.7089 8.73099C42.4318 9.07006 38.0656 9.40912 33.7885 9.74819C27.8184 10.2568 21.7592 10.7654 15.7891 11.274C14.3634 11.3588 12.9377 11.5283 11.4229 11.6131C8.83878 11.8674 6.2547 12.1217 3.67062 12.376C3.4033 12.376 3.13599 12.5455 3.13599 12.8846C3.13599 13.1389 3.4033 13.3932 3.67062 13.3932C4.65079 13.3932 5.54185 13.4779 6.52202 13.4779C6.34381 13.9018 6.2547 14.1561 6.2547 14.4104C6.2547 15.3428 7.05666 16.1905 8.12593 16.1905C15.5217 15.7666 22.8284 15.258 30.2243 14.919C36.6399 14.6647 43.0555 14.3256 49.4712 14.0713C56.5106 13.7322 63.6391 13.3932 70.6785 13.1389C72.9061 13.0541 75.1338 12.9693 77.3614 12.7998C77.9852 12.7998 78.6089 12.715 79.3217 12.715C90.7273 12.4607 102.133 12.1217 113.539 11.8674C119.598 11.6978 125.746 11.5283 131.805 11.4435C134.033 11.3588 136.171 11.3588 138.399 11.274C150.072 11.1045 161.745 10.9349 173.418 10.7654C178.408 10.6806 183.398 10.5959 188.388 10.5111C192.665 10.4263 196.942 10.4263 201.219 10.2568C204.783 10.172 208.258 10.0025 211.823 9.91773C213.605 9.83296 215.387 9.83296 217.08 9.74819C221.09 9.49389 225.099 9.23959 229.109 8.98529C228.842 9.32436 228.842 9.83296 228.931 10.172C229.02 10.5959 229.287 10.9349 229.733 11.1045C230.089 11.274 230.624 11.4435 230.98 11.274C231.872 10.9349 232.763 10.5959 233.565 10.2568C233.565 10.2568 233.565 10.2568 233.475 10.2568C233.565 10.2568 233.565 10.172 233.654 10.172C233.743 10.172 233.832 10.0873 233.832 10.0873H233.743C234.188 9.91772 234.634 9.74819 235.168 9.49389C235.614 9.32436 236.149 9.07006 236.594 8.90052C237.129 8.64622 237.574 8.39192 238.109 8.13762C238.644 7.88332 239 7.20518 239 6.61182C239 6.27275 238.911 6.01845 238.733 5.67938C238.554 5.34031 238.109 4.91648 237.663 4.83171C237.218 4.74695 236.772 4.66218 236.327 4.66218C236.238 4.66218 236.149 4.66218 236.059 4.66218C235.792 4.66218 235.436 4.66218 235.168 4.74695C234.456 4.83171 233.832 4.91648 233.119 4.91648C232.584 4.91648 232.05 5.00125 231.426 5.00125C229.911 5.08601 228.485 5.17078 226.971 5.34031C226.614 5.34031 226.169 5.42508 225.812 5.42508C225.99 5.25555 226.08 5.08601 226.08 4.91648C226.169 4.74695 226.169 4.57741 226.169 4.40788C226.169 4.32311 226.169 4.15358 226.258 4.06881C226.258 3.89928 226.258 3.72974 226.169 3.64498C226.169 3.64498 226.258 3.64498 226.258 3.56021C226.525 3.39068 226.792 3.22114 226.971 2.88207C227.149 2.62777 227.238 2.28871 227.238 1.94964C227.238 1.61057 227.149 1.35627 226.971 1.0172C226.882 0.932436 226.792 0.762902 226.703 0.678135C226.436 0.423834 226.169 0.339068 225.901 0.254301C225.367 0.0847669 224.743 0 224.119 0C223.585 0 223.139 0 222.604 0C221.892 0 221.179 0 220.466 0C219.486 0 218.416 0 217.436 0C214.763 0 212.09 0 209.417 0C206.922 0 204.338 0 201.843 0C199.526 0 197.298 0 194.982 0C185.804 0 176.715 0.0847669 167.537 0.169534C160.676 0.254301 153.814 0.339068 146.953 0.339068C143.924 0.339068 140.805 0.423834 137.775 0.508601C130.914 0.678135 124.053 0.762902 117.192 0.932436C115.232 0.932436 113.271 1.0172 111.311 1.0172C110.152 1.0172 109.083 1.10197 107.925 1.10197C101.153 1.35627 94.3807 1.61057 87.6086 1.86487C85.5592 1.94964 83.5097 2.03441 81.3712 2.11917C80.2128 2.11917 79.0544 2.20394 77.896 2.28871C71.124 2.62777 64.441 2.96684 57.6689 3.30591C54.1938 3.47544 50.7187 3.64498 47.2435 3.89928C41.2734 4.23834 35.3033 4.57741 29.4223 5.00125C24.2541 5.34031 19.086 5.59461 13.9178 5.84891C13.1159 5.93368 12.3139 5.93368 11.4229 6.01845C10.0863 6.10322 8.74967 6.10322 7.41308 6.18798C6.2547 6.52705 5.00722 6.52705 3.84884 6.52705C3.75973 6.18798 3.4033 5.93368 3.13599 6.01845C2.33403 6.01845 1.62118 6.10322 0.819225 6.18798C0.462801 6.27275 0.106376 6.44228 0.0172701 6.78135C-0.0718361 7.20518 0.195482 7.62902 0.551907 7.71379C0.908332 7.79855 1.26476 7.88332 1.62118 7.96809C1.97761 8.05285 2.24492 8.05285 2.60135 8.05285C3.49241 8.13762 4.29437 8.13762 5.18543 8.13762ZM213.694 5.42508C214.763 5.42508 215.921 5.42508 216.991 5.42508C217.08 5.67938 217.258 5.84891 217.436 6.01845C216.991 6.01845 216.545 6.10322 216.189 6.10322C215.387 6.10322 214.585 6.18798 213.783 6.18798C210.219 6.27275 206.744 6.44228 203.179 6.52705C201.575 6.61182 199.971 6.69658 198.368 6.69658C195.873 6.69658 193.289 6.78135 190.794 6.78135C185.002 6.86612 179.299 6.95088 173.507 7.03565C162.28 7.20519 151.141 7.37472 139.914 7.54425C131.894 7.62902 123.875 7.88332 115.855 8.13762C103.826 8.47669 91.7075 8.73099 79.6782 9.07006C77.2723 9.15482 74.8664 9.23959 72.4606 9.40912C65.5994 9.74819 58.7382 10.0025 51.8771 10.3416C45.1941 10.6806 38.422 10.9349 31.7391 11.274C31.1153 11.274 30.4916 11.3588 29.8678 11.3588C31.65 11.1892 33.5212 11.1045 35.3033 10.9349C41.6298 10.5111 47.9564 10.0025 54.2829 9.57866C56.5106 9.40912 58.7382 9.23959 60.8768 9.07006C62.0352 8.98529 63.1935 8.90052 64.2628 8.90052C70.9458 8.56145 77.5396 8.13762 84.1335 7.79855C85.381 7.71379 86.7176 7.62902 87.965 7.54425C89.8363 7.45949 91.7075 7.37472 93.4896 7.37472C100.262 7.12042 107.034 6.86612 113.806 6.61182C115.321 6.52705 116.835 6.52705 118.261 6.44228C118.618 6.44228 119.063 6.44228 119.42 6.44228C120.489 6.44228 121.558 6.44228 122.538 6.35752C129.31 6.18798 136.171 6.10322 142.944 5.93368C146.062 5.84892 149.181 5.76415 152.3 5.76415C162.369 5.67938 172.527 5.59461 182.596 5.50985C193.11 5.50985 203.447 5.42508 213.694 5.42508Z" fill="#1BE12F"/>
<path d="M18.5347 20C18.8041 20 19.0224 19.7868 19.0224 19.5238C19.0224 19.2608 18.8041 19.0476 18.5347 19.0476C18.2653 19.0476 18.0469 19.2608 18.0469 19.5238C18.0469 19.7868 18.2653 20 18.5347 20Z" fill="#1BE12F"/>
</svg>
